<?xml version="1.0" encoding="UTF-8" standalone="no" ?>
<!DOCTYPE svg PUBLIC "-//W3C//DTD SVG 1.1//EN" "http://www.w3.org/Graphics/SVG/1.1/DTD/svg11.dtd">
<svg xmlns="http://www.w3.org/2000/svg" xmlns:xlink="http://www.w3.org/1999/xlink" version="1.1" width="512" height="512" viewBox="0 0 512 512" xml:space="preserve">
<desc>Created with Fabric.js 4.6.0</desc>
<defs>
</defs>
<g transform="matrix(0.81 0 0 0.81 256 256)" id="lvyBEOG7TXs1FMWdPRDvd"  >
<linearGradient id="SVGID_1721_0" gradientUnits="userSpaceOnUse" gradientTransform="matrix(1 0 0 1 0 0.04)"  x1="41.14634146341456" y1="586.936243902439" x2="466.1951219512195" y2="216.42641463414625">
<stop offset="0%" style="stop-color:#000000;stop-opacity: 1"/>
<stop offset="100%" style="stop-color:#1F1F1F;stop-opacity: 1"/>
</linearGradient>
<path style="stroke: none; stroke-width: 1; stroke-dasharray: none; stroke-linecap: butt; stroke-dashoffset: 0; stroke-linejoin: miter; stroke-miterlimit: 4; fill: url(#SVGID_1721_0); fill-rule: nonzero; opacity: 1;" vector-effect="non-scaling-stroke"  transform=" translate(-300, -300)" d="M 577.501 376.453 C 592.197 399.64 600 426.468 600 454.07 C 600 534.5509999999999 534.499 599.963 454.123 599.963 C 425.206 599.963 397.26 591.578 373.432 575.673 L 373.029 575.344 L 372.537 575.1350000000001 C 349.90299999999996 563.7660000000001 325.448 558.0360000000001 299.948 558.0360000000001 C 274.465 558.0360000000001 250.01 563.7650000000001 227.43399999999997 575.1350000000001 L 226.94199999999998 575.344 L 226.49399999999997 575.673 C 202.63699999999997 591.578 174.68999999999997 599.963 145.95199999999997 599.963 C 65.441 599.963 0 534.552 0 454.07 C 0 426.467 7.729 399.639 22.366 376.453 L 22.589 376.155 L 22.679 375.856 C 35.197 352.491 41.598 326.201 41.598 299.73 C 41.598 274.09700000000004 35.869 249.419 24.244 226.68 L 24.125 226.201 L 23.842 225.844 C 8.266 202.063 0 174.429 0 145.961 C 0 65.509 65.441 0.037 145.952 0.037 C 172.93 0.037 199.428 7.498 222.346 21.612 L 222.511 21.820999999999998 L 222.793 21.910999999999998 C 246.339 34.742 273.002 41.42699999999999 299.947 41.42699999999999 C 326.909 41.42699999999999 353.647 34.74199999999999 377.221 21.910999999999994 L 377.445 21.820999999999994 L 377.58 21.611999999999995 C 400.55699999999996 7.497999999999994 426.981 0.03699999999999548 454.123 0.03699999999999548 C 534.499 0.037 600 65.509 600 145.961 C 600 174.429 591.689 202.06300000000002 576.083 225.84500000000003 L 575.8729999999999 226.20200000000003 L 575.68 226.68100000000004 C 564.073 249.42000000000004 558.222 274.09800000000007 558.222 299.73100000000005 C 558.222 326.20200000000006 564.847 352.4920000000001 577.201 375.8570000000001 L 577.35 376.15600000000006 L 577.501 376.453 z" stroke-linecap="round" />
</g>
<g transform="matrix(2.6 0 0 2.6 256 256)" id="sgRl5vQDpWQ9KxK9kmsAE"  >
<linearGradient id="SVGID_263" gradientUnits="userSpaceOnUse" gradientTransform="matrix(1 0 0 1 -75.03 -80.14)"  x1="-6.68670847165005" y1="15.9449654926959" x2="106.59552493427476" y2="90.83610037517633">
<stop offset="0%" style="stop-color:#DBE9EE;stop-opacity: 1"/>
<stop offset="50%" style="stop-color:#70B3FF;stop-opacity: 1"/>
<stop offset="100%" style="stop-color:#3734CF;stop-opacity: 1"/>
</linearGradient>
<path style="stroke: rgb(255,243,18); stroke-width: 0; stroke-dasharray: none; stroke-linecap: butt; stroke-dashoffset: 0; stroke-linejoin: miter; stroke-miterlimit: 4; fill: url(#SVGID_263); fill-rule: nonzero; opacity: 1;" vector-effect="non-scaling-stroke"  transform=" translate(0, 0)" d="M 38.98146 66.33889 C 45.13762 71.26517000000001 51.495979999999996 71.05856 51.495979999999996 71.05856 C 51.495979999999996 71.05856 37.942049999999995 58.0079 30.574299999999997 38.68081 C 23.703369999999996 20.657 26.36884 6.857670000000002 26.36884 6.857670000000002 C 26.36884 6.857670000000002 41.15934 5.005600000000002 52.570750000000004 -0.925329999999998 C 63.98216000000001 -6.856259999999998 75.02956 -18.5411 75.02956 -18.5411 C 75.02956 -18.5411 56.677670000000006 -12.12519 44.38686 -8.68456 C 32.09605 -5.243929999999999 27.20636 -6.788639999999999 27.20636 -6.788639999999999 C 27.20636 -6.788639999999999 27.48431 -12.62591 28.35764 -17.87108 C 30.12995 -28.51547 33.83188 -42.98184 38.98145 -45.10904 C 46.668530000000004 -48.28445 44.38686 -38.418260000000004 44.38686 -38.418260000000004 C 44.38686 -38.418260000000004 52.32446 -36.70167000000001 51.495979999999996 -45.10904000000001 C 50.6675 -53.51641000000001 40.679129999999994 -53.39856 40.679129999999994 -53.39856 C 40.679129999999994 -53.39856 47.011329999999994 -62.18462 51.495979999999996 -62.21139 C 53.454719999999995 -62.22309 53.24373 -59.31291 53.805899999999994 -55.98574 C 54.368069999999996 -52.65857 58.22933999999999 -51.43529 58.22933999999999 -51.43529 C 58.22933999999999 -51.43529 58.15937999999999 -58.77962 61.15521999999999 -65.45263 C 64.15105999999999 -72.12563 70.38019 -80.13736 70.38019 -80.13736 C 70.38019 -80.13736 60.420429999999996 -77.83507 52.570750000000004 -73.35357 C 44.721070000000005 -68.87208000000001 37.641420000000004 -61.03886000000001 37.641420000000004 -61.03886000000001 L 41.684160000000006 -77.70025000000001 C 41.684160000000006 -77.70025000000001 35.604330000000004 -72.66362000000001 30.574300000000008 -64.55552000000002 C 25.544270000000008 -56.44741000000002 21.564040000000006 -43.59278000000002 21.564040000000006 -43.59278000000002 C 21.564040000000006 -43.59278000000002 26.335880000000007 -39.56654000000002 26.368840000000006 -35.40237000000002 C 26.384650000000004 -33.40439000000002 22.932710000000007 -26.931890000000017 20.672290000000004 -25.832320000000017 C 18.411870000000004 -24.732750000000017 15.578550000000003 -26.797480000000018 16.675390000000004 -30.724770000000017 C 17.772230000000004 -34.65206000000002 23.63716 -34.93682000000002 23.63716 -34.93682000000002 C 23.63716 -34.93682000000002 18.70174 -42.79318000000002 11.960300000000002 -33.396540000000016 C 7.103350000000002 -26.626610000000017 7.750220000000002 -5.154350000000015 7.750220000000002 -5.154350000000015 L -9.764909999999997 -5.154350000000015 C -9.764909999999997 -5.154350000000015 -10.651619999999998 -16.222710000000014 -14.029999999999998 -25.832320000000013 C -17.408379999999998 -35.44193000000001 -22.880409999999998 -43.59278000000001 -22.880409999999998 -43.59278000000001 C -22.880409999999998 -43.59278000000001 -20.890099999999997 -44.718910000000015 -17.898349999999997 -43.59278000000001 C -14.906599999999997 -42.46665000000001 -10.913409999999997 -38.41826000000001 -10.913409999999997 -38.41826000000001 C -10.913409999999997 -38.41826000000001 -12.679289999999996 -46.28360000000001 -17.247619999999998 -50.11243000000001 C -21.815949999999997 -53.941260000000014 -28.689209999999996 -53.90608000000001 -28.689209999999996 -53.90608000000001 C -28.689209999999996 -53.90608000000001 -33.431189999999994 -60.25520000000001 -40.58237 -65.45263000000001 C -47.733549999999994 -70.65007000000001 -53.81134 -70.01920000000001 -53.81134 -70.01920000000001 C -53.81134 -70.01920000000001 -39.81619 -55.49560000000001 -33.20958 -39.27938000000001 C -26.602970000000003 -23.06316000000001 -27.583920000000003 -5.154330000000009 -27.583920000000003 -5.154330000000009 C -27.583920000000003 -5.154330000000009 -40.23351 -5.386850000000009 -53.81134 2.061049999999991 C -67.38917000000001 9.508949999999992 -75.02957 19.26411999999999 -75.02957 19.26411999999999 C -75.02957 19.26411999999999 -57.41521 12.54314999999999 -45.85499000000001 9.81466999999999 C -34.29477000000001 7.086199999999991 -28.19169000000001 7.255689999999991 -28.19169000000001 7.255689999999991 C -28.19169000000001 7.255689999999991 -29.56486000000001 18.59563999999999 -32.41636000000001 28.45624999999999 C -35.26787000000001 38.31685999999999 -38.72562000000001 45.32109999999999 -39.69722000000001 45.76858999999999 C -40.66882000000001 46.21607999999999 -44.028310000000005 47.69386999999999 -45.85499000000001 45.76858999999999 C -47.68167000000001 43.84330999999999 -45.85499000000001 39.19597999999999 -45.85499000000001 39.19597999999999 C -45.85499000000001 39.19597999999999 -54.56719000000001 36.83162999999999 -52.71681000000001 49.24092999999999 C -51.86150000000001 54.97693999999999 -42.00191000000001 54.608999999999995 -42.00191000000001 54.608999999999995 C -42.00191000000001 54.608999999999995 -44.16280000000001 58.44781 -47.39103000000001 60.85021999999999 C -50.61926000000001 63.25261999999999 -55.312830000000005 63.522099999999995 -55.312830000000005 63.522099999999995 C -55.312830000000005 63.522099999999995 -54.111630000000005 59.22998 -55.312830000000005 56.37711999999999 C -56.514030000000005 53.52426999999999 -60.117630000000005 53.40421999999999 -60.117630000000005 53.40421999999999 C -60.117630000000005 53.40421999999999 -59.63177 59.01735999999999 -62.25940000000001 65.69903999999998 C -64.88703000000001 72.38071999999998 -71.32466000000001 80.13094999999998 -71.32466000000001 80.13094999999998 C -71.32466000000001 80.13094999999998 -65.15652000000001 80.47155999999998 -57.42378000000001 76.19227999999998 C -49.691050000000004 71.91299999999998 -39.69721000000001 63.013829999999984 -39.69721000000001 63.013829999999984 C -39.69721000000001 63.013829999999984 -39.65792000000001 65.50252999999998 -40.58235000000001 69.15498999999998 C -41.50678000000001 72.80744999999999 -43.39494000000001 77.62365999999999 -43.39494000000001 77.62365999999999 C -43.39494000000001 77.62365999999999 -34.53527000000001 69.77818999999998 -29.782010000000014 61.32091999999999 C -25.028750000000013 52.86365999999999 -24.381900000000016 43.79459999999999 -24.381900000000016 43.79459999999999 C -24.381900000000016 43.79459999999999 -28.390680000000017 39.211429999999986 -28.191680000000016 35.49465999999999 C -27.992680000000014 31.77787999999999 -22.773740000000018 25.78183999999999 -19.477210000000014 27.69408999999999 C -17.392980000000016 28.903109999999987 -17.915900000000015 31.94395999999999 -19.924400000000013 33.99401999999999 C -21.743930000000013 35.85119999999999 -24.978920000000013 36.78818999999999 -24.978920000000013 36.78818999999999 C -24.978920000000013 36.78818999999999 -22.862040000000015 38.74768999999999 -20.759940000000014 39.195969999999996 C -18.657840000000014 39.64424999999999 -13.846630000000015 38.48403 -11.595390000000014 29.029059999999994 C -9.344140000000014 19.574079999999995 -9.366890000000014 5.356159999999996 -9.366890000000014 5.356159999999996 L 7.750229999999986 6.857659999999996 C 7.750229999999986 6.857659999999996 9.564369999999986 19.975029999999997 13.017819999999986 29.584629999999997 C 16.471269999999986 39.19423999999999 21.564039999999984 45.29609 21.564039999999984 45.29609 C 21.564039999999984 45.29609 18.708789999999986 45.77466 15.780869999999984 44.49838 C 12.852939999999984 43.2221 9.014809999999983 40.190979999999996 9.014809999999983 40.190979999999996 C 9.014809999999983 40.190979999999996 11.442359999999983 48.09572 15.780869999999982 51.84948 C 20.119379999999982 55.603229999999996 27.206369999999982 55.206 27.206369999999982 55.206 C 27.206369999999982 55.206 32.82530999999998 61.41259 38.981459999999984 66.33887 z" stroke-linecap="round" />
</g>
</svg>